<svg width="103" height="27" viewBox="0 0 103 27" fill="none" xmlns="http://www.w3.org/2000/svg">
    <g clip-path="url(#clip0_115_280)">
        <path
            d="M2.2022 3.49211C3.27991 4.06035 18.2503 12.2216 18.8087 12.5155C19.3672 12.8094 19.9354 12.9466 20.8172 12.9466C21.699 12.9466 22.2672 12.8094 22.8257 12.5155C23.3841 12.2216 38.3545 4.06035 39.4322 3.49211C39.8339 3.28636 40.5099 2.91406 40.6569 2.49277C40.9116 1.74817 40.6373 1.46405 39.5498 1.46405H20.8172H2.08463C0.997119 1.46405 0.722792 1.75797 0.977523 2.49277C1.12448 2.92386 1.8005 3.28636 2.2022 3.49211Z"
            fill="#3944BC" />
        <path
            d="M40.2846 3.93281C39.4812 4.34429 32.2703 9.47812 27.499 12.5643L35.5525 21.6269C35.7484 21.8228 35.8366 22.0579 35.7288 22.1755C35.6112 22.2833 35.3565 22.2245 35.1508 22.0383L25.4906 13.8869C24.0307 14.8275 23.002 15.4741 22.8257 15.5721C22.0713 15.9542 21.5422 16.0032 20.8172 16.0032C20.0922 16.0032 19.5631 15.9542 18.8087 15.5721C18.6226 15.4741 17.6037 14.8275 16.1439 13.8869L6.48365 22.0383C6.2877 22.2343 6.02318 22.2931 5.90561 22.1755C5.78804 22.0677 5.87621 21.8228 6.07216 21.6269L14.1158 12.5643C9.34448 9.47812 2.05524 4.34429 1.25185 3.93281C0.389685 3.49192 0.340698 4.01119 0.340698 4.41288C0.340698 4.81457 0.340698 24.4975 0.340698 24.4975C0.340698 25.4086 1.68294 26.5451 2.64308 26.5451H20.8172H38.9913C39.9515 26.5451 41.0978 25.3988 41.0978 24.4975C41.0978 24.4975 41.0978 4.80477 41.0978 4.41288C41.0978 4.00139 41.1566 3.49192 40.2846 3.93281Z"
            fill="#3944BC" />
    </g>
    <path
        d="M49.167 9.12776V12.2098H55.6031V15.5639H49.167V18.646H56.3283V22H45.6317V5.77373H56.3283V9.12776H49.167ZM58.5478 10.8954H61.7206V12.3005H61.9472C62.3098 11.7415 62.7706 11.3109 63.3296 11.0087C63.9037 10.6915 64.576 10.5328 65.3466 10.5328C66.1926 10.5328 66.8952 10.7368 67.4542 11.1447C68.0132 11.5375 68.406 11.9983 68.6326 12.5271C68.965 11.9983 69.4409 11.5375 70.0603 11.1447C70.6798 10.7368 71.4578 10.5328 72.3946 10.5328C73.0593 10.5328 73.641 10.6461 74.1396 10.8728C74.6381 11.0843 75.0461 11.3864 75.3633 11.7793C75.6957 12.1721 75.945 12.6404 76.1112 13.1843C76.2774 13.7282 76.3605 14.325 76.3605 14.9747V22H72.9611V15.6319C72.9611 15.0578 72.8251 14.597 72.5532 14.2495C72.2964 13.8869 71.9111 13.7056 71.3974 13.7056C70.6571 13.7056 70.0981 14.0077 69.7204 14.6121C69.3427 15.2013 69.1538 15.9945 69.1538 16.9916V22H65.7545V15.6319C65.7545 15.0578 65.611 14.597 65.3239 14.2495C65.0519 13.8869 64.6214 13.7056 64.0321 13.7056C63.3372 13.7056 62.8159 14.0077 62.4684 14.6121C62.1209 15.2013 61.9472 15.9945 61.9472 16.9916V22H58.5478V10.8954ZM85.35 21.0029H85.1234C84.7608 21.3957 84.3453 21.7205 83.877 21.9773C83.4237 22.2342 82.8345 22.3626 82.1093 22.3626C81.5503 22.3626 81.0215 22.2719 80.5229 22.0906C80.0395 21.9094 79.6089 21.6525 79.2312 21.3201C78.8686 20.9877 78.5815 20.5874 78.37 20.119C78.1585 19.6507 78.0527 19.1294 78.0527 18.5553C78.0527 17.9963 78.166 17.4902 78.3927 17.0369C78.6193 16.5686 78.929 16.1682 79.3218 15.8358C79.7146 15.5034 80.1754 15.2466 80.7042 15.0653C81.2481 14.884 81.8373 14.7934 82.4719 14.7934C83.1518 14.7934 83.7108 14.8387 84.1489 14.9293C84.6022 15.02 85.0025 15.1257 85.35 15.2466V14.952C85.35 14.4685 85.1461 14.0606 84.7381 13.7282C84.3453 13.3807 83.809 13.207 83.1291 13.207C82.1471 13.207 81.301 13.6074 80.5909 14.4081L78.2793 12.7764C78.9139 12.021 79.6466 11.462 80.4776 11.0994C81.3237 10.7217 82.2528 10.5328 83.2651 10.5328C85.0781 10.5328 86.4454 10.9408 87.367 11.7566C88.2886 12.5573 88.7494 13.7811 88.7494 15.4279V22H85.35V21.0029ZM85.35 17.6262C85.0025 17.4902 84.655 17.3844 84.3075 17.3089C83.9752 17.2333 83.6277 17.1956 83.2651 17.1956C82.6607 17.1956 82.2075 17.324 81.9053 17.5808C81.6032 17.8226 81.4521 18.1398 81.4521 18.5327C81.4521 18.9255 81.5956 19.2427 81.8827 19.4845C82.1697 19.7111 82.5474 19.8244 83.0158 19.8244C83.3935 19.8244 83.7259 19.764 84.0129 19.6431C84.3151 19.5071 84.5644 19.3334 84.7608 19.1219C84.9572 18.9104 85.1007 18.6762 85.1914 18.4193C85.2971 18.1474 85.35 17.883 85.35 17.6262ZM92.9839 9.67166C92.6817 9.67166 92.4022 9.61878 92.1454 9.51302C91.8885 9.39216 91.6619 9.24107 91.4655 9.05977C91.2842 8.86337 91.1331 8.63674 91.0122 8.3799C90.9065 8.12306 90.8536 7.84356 90.8536 7.54139C90.8536 7.25434 90.9065 6.98239 91.0122 6.72555C91.1331 6.4536 91.2842 6.22697 91.4655 6.04568C91.6619 5.84927 91.8885 5.69819 92.1454 5.59243C92.4022 5.47156 92.6817 5.41113 92.9839 5.41113C93.2709 5.41113 93.5429 5.47156 93.7997 5.59243C94.0717 5.69819 94.2983 5.84927 94.4796 6.04568C94.676 6.22697 94.8271 6.4536 94.9328 6.72555C95.0537 6.98239 95.1141 7.25434 95.1141 7.54139C95.1141 7.84356 95.0537 8.12306 94.9328 8.3799C94.8271 8.63674 94.676 8.86337 94.4796 9.05977C94.2983 9.24107 94.0717 9.39216 93.7997 9.51302C93.5429 9.61878 93.2709 9.67166 92.9839 9.67166ZM91.2842 22V10.8954H94.6836V22H91.2842ZM97.4103 22V5.77373H100.81V22H97.4103Z"
        fill="#3944BC" />
    <defs>
        <clipPath id="clip0_115_280">
            <rect width="41.4386" height="23.9908" fill="white" transform="translate(0 2.00922)" />
        </clipPath>
    </defs>
</svg>