<svg width="169" height="25" viewBox="0 0 169 25" fill="none" xmlns="http://www.w3.org/2000/svg">
    <path
        d="M27.5992 5.09702H33.2185C34.492 5.09702 35.6395 5.28952 36.6612 5.6745C37.6829 6.05949 38.5491 6.59996 39.2599 7.2959C39.9706 7.99184 40.5111 8.82845 40.8813 9.80573C41.2663 10.783 41.4588 11.8639 41.4588 13.0485C41.4588 14.2331 41.2663 15.314 40.8813 16.2913C40.5111 17.2686 39.9706 18.1052 39.2599 18.8011C38.5491 19.4971 37.6829 20.0375 36.6612 20.4225C35.6395 20.8075 34.492 21 33.2185 21H27.5992V5.09702ZM33.0408 17.7128C33.8997 17.7128 34.64 17.6017 35.2619 17.3796C35.8838 17.1427 36.3947 16.817 36.7945 16.4024C37.2091 15.9877 37.5126 15.4991 37.7051 14.9364C37.8976 14.359 37.9939 13.7296 37.9939 13.0485C37.9939 12.3674 37.8976 11.7455 37.7051 11.1828C37.5126 10.6053 37.2091 10.1093 36.7945 9.69467C36.3947 9.28007 35.8838 8.96171 35.2619 8.7396C34.64 8.50269 33.8997 8.38423 33.0408 8.38423H31.0641V17.7128H33.0408ZM48.4496 9.7613C49.2936 9.7613 50.071 9.90938 50.7818 10.2055C51.5073 10.4869 52.1292 10.8867 52.6475 11.4049C53.1805 11.9084 53.5877 12.5155 53.8691 13.2262C54.1652 13.9369 54.3133 14.7143 54.3133 15.5583C54.3133 16.4024 54.1652 17.1797 53.8691 17.8905C53.5877 18.6012 53.1805 19.2157 52.6475 19.734C52.1292 20.2374 51.5073 20.6372 50.7818 20.9334C50.071 21.2147 49.2936 21.3554 48.4496 21.3554C47.6056 21.3554 46.8208 21.2147 46.0953 20.9334C45.3845 20.6372 44.7626 20.2374 44.2296 19.734C43.7113 19.2157 43.3041 18.6012 43.008 17.8905C42.7266 17.1797 42.586 16.4024 42.586 15.5583C42.586 14.7143 42.7266 13.9369 43.008 13.2262C43.3041 12.5155 43.7113 11.9084 44.2296 11.4049C44.7626 10.8867 45.3845 10.4869 46.0953 10.2055C46.8208 9.90938 47.6056 9.7613 48.4496 9.7613ZM48.4496 18.2459C48.7902 18.2459 49.1086 18.1866 49.4047 18.0682C49.7156 17.9349 49.9896 17.7572 50.2265 17.5351C50.4634 17.2982 50.6485 17.0169 50.7818 16.6911C50.915 16.3505 50.9817 15.9729 50.9817 15.5583C50.9817 15.1437 50.915 14.7736 50.7818 14.4478C50.6485 14.122 50.4634 13.8407 50.2265 13.6038C49.9896 13.3669 49.7156 13.1892 49.4047 13.0707C49.1086 12.9375 48.7902 12.8708 48.4496 12.8708C48.1091 12.8708 47.7833 12.9375 47.4723 13.0707C47.1762 13.1892 46.9097 13.3669 46.6728 13.6038C46.4358 13.8407 46.2508 14.122 46.1175 14.4478C45.9842 14.7736 45.9176 15.1437 45.9176 15.5583C45.9176 15.9729 45.9842 16.3505 46.1175 16.6911C46.2508 17.0169 46.4358 17.2982 46.6728 17.5351C46.9097 17.7572 47.1762 17.9349 47.4723 18.0682C47.7833 18.1866 48.1091 18.2459 48.4496 18.2459ZM54.8068 10.1167H58.6271L60.1152 16.2469H60.3373L62.2696 10.1167H65.6901L67.6002 16.2469H67.8224L69.2883 10.1167H73.0641L69.5992 21H65.9566L64.0243 14.8698H63.8022L61.8921 21H58.2717L54.8068 10.1167ZM77.508 11.4938H77.7301C78.4705 10.3388 79.581 9.7613 81.0618 9.7613C82.424 9.7613 83.4383 10.1981 84.1047 11.0717C84.771 11.9454 85.1041 13.0929 85.1041 14.5144V21H81.7725V14.892C81.7725 14.2997 81.6318 13.8185 81.3505 13.4483C81.0692 13.0633 80.6324 12.8708 80.0401 12.8708C79.2849 12.8708 78.7074 13.1596 78.3076 13.737C77.9226 14.3145 77.7301 15.0697 77.7301 16.0026V21H74.3985V10.1167H77.508V11.4938ZM87.4994 21V5.09702H90.8311V21H87.4994ZM98.4458 9.7613C99.2898 9.7613 100.067 9.90938 100.778 10.2055C101.503 10.4869 102.125 10.8867 102.644 11.4049C103.177 11.9084 103.584 12.5155 103.865 13.2262C104.161 13.9369 104.309 14.7143 104.309 15.5583C104.309 16.4024 104.161 17.1797 103.865 17.8905C103.584 18.6012 103.177 19.2157 102.644 19.734C102.125 20.2374 101.503 20.6372 100.778 20.9334C100.067 21.2147 99.2898 21.3554 98.4458 21.3554C97.6017 21.3554 96.817 21.2147 96.0914 20.9334C95.3807 20.6372 94.7588 20.2374 94.2257 19.734C93.7074 19.2157 93.3002 18.6012 93.0041 17.8905C92.7228 17.1797 92.5821 16.4024 92.5821 15.5583C92.5821 14.7143 92.7228 13.9369 93.0041 13.2262C93.3002 12.5155 93.7074 11.9084 94.2257 11.4049C94.7588 10.8867 95.3807 10.4869 96.0914 10.2055C96.817 9.90938 97.6017 9.7613 98.4458 9.7613ZM98.4458 18.2459C98.7863 18.2459 99.1047 18.1866 99.4008 18.0682C99.7118 17.9349 99.9857 17.7572 100.223 17.5351C100.46 17.2982 100.645 17.0169 100.778 16.6911C100.911 16.3505 100.978 15.9729 100.978 15.5583C100.978 15.1437 100.911 14.7736 100.778 14.4478C100.645 14.122 100.46 13.8407 100.223 13.6038C99.9857 13.3669 99.7118 13.1892 99.4008 13.0707C99.1047 12.9375 98.7863 12.8708 98.4458 12.8708C98.1052 12.8708 97.7794 12.9375 97.4685 13.0707C97.1723 13.1892 96.9058 13.3669 96.6689 13.6038C96.432 13.8407 96.2469 14.122 96.1136 14.4478C95.9803 14.7736 95.9137 15.1437 95.9137 15.5583C95.9137 15.9729 95.9803 16.3505 96.1136 16.6911C96.2469 17.0169 96.432 17.2982 96.6689 17.5351C96.9058 17.7572 97.1723 17.9349 97.4685 18.0682C97.7794 18.1866 98.1052 18.2459 98.4458 18.2459ZM112.705 20.0227H112.483C112.127 20.4077 111.72 20.7261 111.261 20.9778C110.817 21.2295 110.239 21.3554 109.529 21.3554C108.981 21.3554 108.463 21.2665 107.974 21.0888C107.5 20.9112 107.078 20.6594 106.708 20.3337C106.352 20.0079 106.071 19.6155 105.864 19.1565C105.657 18.6975 105.553 18.1866 105.553 17.6239C105.553 17.0761 105.664 16.58 105.886 16.1358C106.108 15.6768 106.412 15.2844 106.797 14.9586C107.182 14.6329 107.633 14.3812 108.152 14.2035C108.685 14.0258 109.262 13.9369 109.884 13.9369C110.55 13.9369 111.098 13.9814 111.528 14.0702C111.972 14.1591 112.364 14.2627 112.705 14.3812V14.0924C112.705 13.6186 112.505 13.2188 112.105 12.893C111.72 12.5525 111.194 12.3822 110.528 12.3822C109.566 12.3822 108.736 12.7746 108.04 13.5594L105.775 11.9602C106.397 11.2198 107.115 10.6719 107.929 10.3166C108.759 9.94639 109.669 9.7613 110.661 9.7613C112.438 9.7613 113.778 10.1611 114.682 10.9607C115.585 11.7455 116.036 12.9449 116.036 14.5588V21H112.705V20.0227ZM112.705 16.7133C112.364 16.58 112.024 16.4764 111.683 16.4024C111.357 16.3283 111.017 16.2913 110.661 16.2913C110.069 16.2913 109.625 16.4172 109.329 16.6689C109.033 16.9058 108.885 17.2167 108.885 17.6017C108.885 17.9867 109.025 18.2977 109.307 18.5346C109.588 18.7567 109.958 18.8678 110.417 18.8678C110.787 18.8678 111.113 18.8085 111.394 18.6901C111.69 18.5568 111.935 18.3865 112.127 18.1792C112.32 17.9719 112.46 17.7424 112.549 17.4907C112.653 17.2242 112.705 16.965 112.705 16.7133ZM126.231 19.8006H126.008C125.757 20.23 125.364 20.6002 124.831 20.9112C124.313 21.2073 123.654 21.3554 122.854 21.3554C122.159 21.3554 121.492 21.2147 120.855 20.9334C120.219 20.652 119.656 20.2596 119.167 19.7562C118.694 19.2379 118.316 18.6234 118.035 17.9127C117.753 17.2019 117.613 16.4172 117.613 15.5583C117.613 14.6995 117.753 13.9147 118.035 13.204C118.316 12.4932 118.694 11.8861 119.167 11.3827C119.656 10.8644 120.219 10.4646 120.855 10.1833C121.492 9.90197 122.159 9.7613 122.854 9.7613C123.654 9.7613 124.313 9.91678 124.831 10.2277C125.364 10.5239 125.757 10.8867 126.008 11.3161H126.231L126.008 9.7613V5.09702H129.34V21H126.231V19.8006ZM123.587 18.2459C123.943 18.2459 124.276 18.1866 124.587 18.0682C124.913 17.9349 125.194 17.7572 125.431 17.5351C125.683 17.2982 125.875 17.0169 126.008 16.6911C126.156 16.3505 126.231 15.9729 126.231 15.5583C126.231 15.1437 126.156 14.7736 126.008 14.4478C125.875 14.122 125.683 13.8407 125.431 13.6038C125.194 13.3669 124.913 13.1892 124.587 13.0707C124.276 12.9375 123.943 12.8708 123.587 12.8708C123.232 12.8708 122.891 12.9375 122.566 13.0707C122.255 13.1892 121.973 13.3669 121.722 13.6038C121.485 13.8407 121.292 14.122 121.144 14.4478C121.011 14.7736 120.944 15.1437 120.944 15.5583C120.944 15.9729 121.011 16.3505 121.144 16.6911C121.292 17.0169 121.485 17.2982 121.722 17.5351C121.973 17.7572 122.255 17.9349 122.566 18.0682C122.891 18.1866 123.232 18.2459 123.587 18.2459ZM150.607 18.4235C148.978 20.3781 146.853 21.3554 144.232 21.3554C143.048 21.3554 141.945 21.1407 140.923 20.7113C139.901 20.2818 139.013 19.697 138.258 18.9566C137.517 18.2014 136.932 17.3204 136.503 16.3135C136.074 15.3066 135.859 14.2183 135.859 13.0485C135.859 11.8787 136.074 10.7904 136.503 9.78352C136.932 8.77662 137.517 7.903 138.258 7.16263C139.013 6.40746 139.901 5.81517 140.923 5.38576C141.945 4.95635 143.048 4.74165 144.232 4.74165C145.535 4.74165 146.661 4.96376 147.608 5.40797C148.571 5.85219 149.445 6.49631 150.229 7.34032L147.808 9.69467C147.394 9.22084 146.898 8.82845 146.32 8.5175C145.743 8.19174 145.054 8.02886 144.255 8.02886C143.559 8.02886 142.907 8.14731 142.3 8.38423C141.708 8.62115 141.19 8.96171 140.745 9.40593C140.301 9.85015 139.953 10.3832 139.701 11.0051C139.45 11.6122 139.324 12.2933 139.324 13.0485C139.324 13.8037 139.45 14.4922 139.701 15.1141C139.953 15.7212 140.301 16.2469 140.745 16.6911C141.19 17.1353 141.708 17.4759 142.3 17.7128C142.907 17.9497 143.559 18.0682 144.255 18.0682C145.099 18.0682 145.832 17.8979 146.453 17.5573C147.075 17.2167 147.638 16.7281 148.142 16.0914L150.607 18.4235ZM151.68 5.09702H155.411L158.432 13.8481L159.032 16.0692H159.254L159.898 13.8481L163.052 5.09702H166.783L160.964 21H157.321L151.68 5.09702Z"
        fill="white" />
    <g clip-path="url(#clip0_123_666)">
        <path
            d="M10.8 2.21505C10.798 1.55232 11.3335 1.01337 11.9963 1.0113C12.659 1.00922 13.198 1.54479 13.2 2.20753L10.8 2.21505Z"
            fill="white" />
        <path
            d="M14.779 10.9541L13.2323 12.5104L13.2 2.20752L10.8 2.21504L10.8323 12.518L9.27605 10.9714C8.80595 10.5042 8.04614 10.5066 7.57898 10.9767C7.11182 11.4467 7.11421 12.2066 7.58431 12.6737L7.58732 12.6767L7.58851 12.6779L12.0468 17.1083L16.4647 12.6624L16.4715 12.6557L16.4724 12.6548L16.4734 12.6538L16.4805 12.6467L14.779 10.9541Z"
            fill="white" />
        <path
            d="M16.4813 12.6458C16.9484 12.1757 16.946 11.4158 16.476 10.9487C16.0058 10.4816 15.246 10.484 14.7789 10.9541L16.4813 12.6458Z"
            fill="white" />
        <path
            d="M2.4 13C2.4 11.6745 3.47452 10.6 4.8 10.6C5.46274 10.6 6 10.0627 6 9.40001C6 8.73726 5.46274 8.20001 4.8 8.20001C2.14903 8.20001 0 10.349 0 13V20.2C0 22.8509 2.14903 25 4.8 25H18C21.3137 25 24 22.3137 24 19V13C24 10.349 21.8509 8.20001 19.2 8.20001C18.5372 8.20001 18 8.73726 18 9.40001C18 10.0627 18.5372 10.6 19.2 10.6C20.5255 10.6 21.6 11.6745 21.6 13V19C21.6 20.9883 19.9883 22.6 18 22.6H4.8C3.47452 22.6 2.4 21.5255 2.4 20.2V13Z"
            fill="white" />
    </g>
    <defs>
        <clipPath id="clip0_123_666">
            <rect width="24" height="24" fill="white" transform="translate(0 1)" />
        </clipPath>
    </defs>
</svg>