<svg width="89" height="32" viewBox="0 0 89 32" fill="none" xmlns="http://www.w3.org/2000/svg">
    <rect x="67" y="4.42993" width="22" height="22" rx="1.83333" fill="white" />
    <path
        d="M70.0539 22.9095V12.3878H73.6734V22.9095H70.0539ZM71.8636 11.0831C71.2744 11.0831 70.7974 10.9218 70.4327 10.5991C70.0679 10.2624 69.8855 9.8205 69.8855 9.27337C69.8855 8.72624 70.0679 8.29134 70.4327 7.96867C70.7974 7.63198 71.2744 7.46363 71.8636 7.46363C72.4529 7.46363 72.9298 7.63198 73.2946 7.96867C73.6593 8.29134 73.8417 8.72624 73.8417 9.27337C73.8417 9.8205 73.6593 10.2624 73.2946 10.5991C72.9298 10.9218 72.4529 11.0831 71.8636 11.0831ZM76.1162 22.9095V12.3878H79.0623L79.3148 13.6504H79.399C79.8199 13.2436 80.2969 12.8928 80.83 12.5982C81.3771 12.2896 82.0084 12.1353 82.7239 12.1353C83.8883 12.1353 84.723 12.5281 85.2281 13.3137C85.7471 14.0853 86.0067 15.1235 86.0067 16.4282V22.9095H82.3872V16.8911C82.3872 16.2177 82.303 15.7688 82.1347 15.5443C81.9663 15.3199 81.6998 15.2076 81.335 15.2076C80.9983 15.2076 80.7177 15.2778 80.4933 15.4181C80.2688 15.5584 80.0163 15.7548 79.7357 16.0073V22.9095H76.1162Z"
        fill="#0077B5" />
    <path
        d="M1.54326 23V9.06782H5.22993V19.9135H10.5027V23H1.54326ZM12.6091 23V12.2829H16.2958V23H12.6091ZM14.4525 10.954C13.8523 10.954 13.3665 10.7897 12.9949 10.461C12.6234 10.1181 12.4376 9.66798 12.4376 9.11069C12.4376 8.5534 12.6234 8.11043 12.9949 7.78178C13.3665 7.43883 13.8523 7.26736 14.4525 7.26736C15.0526 7.26736 15.5385 7.43883 15.91 7.78178C16.2815 8.11043 16.4673 8.5534 16.4673 9.11069C16.4673 9.66798 16.2815 10.1181 15.91 10.461C15.5385 10.7897 15.0526 10.954 14.4525 10.954ZM18.784 23V12.2829H21.7848L22.042 13.569H22.1277C22.5564 13.1546 23.0422 12.7974 23.5852 12.4973C24.1425 12.1829 24.7855 12.0257 25.5143 12.0257C26.7003 12.0257 27.5505 12.4258 28.065 13.226C28.5937 14.012 28.858 15.0694 28.858 16.3983V23H25.1714V16.8698C25.1714 16.1839 25.0856 15.7267 24.9141 15.4981C24.7427 15.2694 24.4712 15.1551 24.0997 15.1551C23.7567 15.1551 23.4709 15.2266 23.2423 15.3695C23.0137 15.5123 22.7564 15.7124 22.4707 15.9696V23H18.784ZM31.2593 23V8.08185H34.9031V15.9696H34.9889L37.861 12.2829H41.8906L38.1182 16.7841L42.105 23H38.1182L35.9748 19.1847L34.9031 20.385V23H31.2593ZM47.7236 23.2572C46.6804 23.2572 45.7373 23.0357 44.8943 22.5928C44.0655 22.1498 43.4082 21.5139 42.9223 20.6851C42.4365 19.842 42.1936 18.8275 42.1936 17.6415C42.1936 16.484 42.4365 15.4909 42.9223 14.6621C43.4225 13.8191 44.0655 13.1689 44.8514 12.7116C45.6373 12.2544 46.4661 12.0257 47.3378 12.0257C48.3952 12.0257 49.2668 12.2615 49.9527 12.7331C50.6529 13.1903 51.1673 13.8119 51.496 14.5978C51.8389 15.3837 52.0104 16.2554 52.0104 17.2128C52.0104 17.5272 51.989 17.8344 51.9461 18.1345C51.9175 18.4202 51.8889 18.6274 51.8604 18.756H45.1086L45.0657 16.3554H48.881C48.881 15.941 48.7738 15.5838 48.5595 15.2837C48.3594 14.9693 47.9808 14.8122 47.4235 14.8122C47.1234 14.8122 46.8233 14.8979 46.5233 15.0694C46.2375 15.2266 46.0017 15.5123 45.8159 15.9267C45.6302 16.3411 45.5516 16.9127 45.5802 17.6415C45.6087 18.4274 45.7588 19.0275 46.0303 19.4419C46.3018 19.842 46.6304 20.1135 47.0162 20.2564C47.4163 20.3993 47.8236 20.4708 48.238 20.4708C48.6095 20.4708 48.9739 20.4208 49.3311 20.3207C49.7026 20.2064 50.0813 20.0421 50.4671 19.8278L51.6246 22.014C51.053 22.4141 50.41 22.7214 49.6955 22.9357C48.981 23.15 48.3237 23.2572 47.7236 23.2572ZM57.9341 23.2572C56.6052 23.2572 55.5406 22.7571 54.7404 21.7568C53.9545 20.7423 53.5615 19.3705 53.5615 17.6415C53.5615 16.4697 53.7687 15.4695 54.1831 14.6407C54.6118 13.7976 55.1619 13.1546 55.8335 12.7116C56.5051 12.2544 57.2053 12.0257 57.9341 12.0257C58.5199 12.0257 58.9986 12.1258 59.3702 12.3258C59.756 12.5116 60.1061 12.7688 60.4204 13.0974L60.2918 11.5542V8.08185H63.9785V23H60.9777L60.7205 22.014H60.6348C60.2775 22.3713 59.856 22.6713 59.3702 22.9143C58.8843 23.1429 58.4056 23.2572 57.9341 23.2572ZM58.92 20.2564C59.2058 20.2564 59.4559 20.2064 59.6702 20.1064C59.8989 19.9921 60.1061 19.7849 60.2918 19.4848V15.5409C60.0775 15.3409 59.8417 15.2051 59.5845 15.1337C59.3273 15.0622 59.0772 15.0265 58.8343 15.0265C58.5771 15.0265 58.3342 15.1122 58.1056 15.2837C57.8769 15.4409 57.6912 15.7124 57.5483 16.0982C57.4054 16.4697 57.3339 16.9699 57.3339 17.5986C57.3339 18.556 57.4768 19.2419 57.7626 19.6563C58.0484 20.0564 58.4342 20.2564 58.92 20.2564Z"
        fill="white" />
</svg>