<svg width="146" height="24" viewBox="0 0 146 24" fill="none" xmlns="http://www.w3.org/2000/svg">
    <g clip-path="url(#clip0_120_80)">
        <path
            d="M14.3674 6.89998C15.3393 6.89998 16.2713 7.26346 16.9585 7.91046C17.6457 8.55746 18.0317 9.43498 18.0317 10.35C18.0317 10.655 18.1604 10.9475 18.3895 11.1631C18.6185 11.3788 18.9292 11.5 19.2531 11.5C19.5771 11.5 19.8878 11.3788 20.1168 11.1631C20.3459 10.9475 20.4746 10.655 20.4746 10.35C20.4746 8.82498 19.8311 7.36245 18.6858 6.28411C17.5405 5.20578 15.9871 4.59998 14.3674 4.59998C14.0435 4.59998 13.7328 4.72114 13.5037 4.9368C13.2747 5.15247 13.146 5.44498 13.146 5.74998C13.146 6.05497 13.2747 6.34748 13.5037 6.56315C13.7328 6.77881 14.0435 6.89998 14.3674 6.89998Z"
            fill="#3944BC" />
        <path
            d="M14.3674 2.3C16.635 2.3 18.8097 3.14812 20.4132 4.65779C22.0166 6.16746 22.9174 8.21501 22.9174 10.35C22.9174 10.655 23.0461 10.9475 23.2752 11.1632C23.5042 11.3788 23.8149 11.5 24.1388 11.5C24.4628 11.5 24.7735 11.3788 25.0025 11.1632C25.2316 10.9475 25.3603 10.655 25.3603 10.35C25.3603 7.60501 24.2021 4.97245 22.1405 3.03144C20.079 1.09044 17.2829 0 14.3674 0C14.0435 0 13.7328 0.12116 13.5037 0.336827C13.2747 0.552494 13.146 0.845001 13.146 1.15C13.146 1.455 13.2747 1.74751 13.5037 1.96317C13.7328 2.17884 14.0435 2.3 14.3674 2.3ZM25.0549 15.9965C24.9877 15.8119 24.8718 15.6464 24.7179 15.5156C24.5641 15.3849 24.3774 15.2931 24.1755 15.249L16.8469 13.6735C16.648 13.631 16.4409 13.6361 16.2446 13.6884C16.0484 13.7406 15.8691 13.8383 15.7232 13.9725C15.5522 14.122 15.54 14.1335 14.7461 15.5595C12.1117 14.4166 10.0008 12.421 8.7977 9.936C10.3489 9.2 10.3611 9.2 10.5199 9.0275C10.6625 8.89014 10.7662 8.72135 10.8217 8.53655C10.8772 8.35174 10.8826 8.15679 10.8375 7.9695L9.16413 1.15C9.11728 0.9599 9.01983 0.784151 8.88093 0.639298C8.74204 0.494445 8.56628 0.385253 8.3702 0.322C8.08496 0.226078 7.7904 0.156745 7.49077 0.115C7.18206 0.0476045 6.86703 0.00908424 6.55027 0C5.06013 0 3.63103 0.557338 2.57734 1.54941C1.52366 2.54147 0.931702 3.887 0.931702 5.29C0.938165 9.98512 2.922 14.4862 6.44816 17.8061C9.97432 21.1261 14.755 22.9939 19.7417 23C20.4795 23 21.2102 22.8632 21.8918 22.5973C22.5735 22.3315 23.1929 21.9418 23.7146 21.4506C24.2364 20.9594 24.6502 20.3762 24.9326 19.7344C25.2149 19.0926 25.3603 18.4047 25.3603 17.71C25.3606 17.4173 25.3361 17.125 25.287 16.836C25.2357 16.5504 25.158 16.2695 25.0549 15.9965Z"
            fill="#3944BC" />
    </g>
    <path
        d="M42.7009 16.6578C41.2202 18.4346 39.2885 19.3231 36.9059 19.3231C35.829 19.3231 34.8262 19.1279 33.8974 18.7375C32.9686 18.3471 32.1609 17.8154 31.4744 17.1424C30.8013 16.4558 30.2696 15.6549 29.8792 14.7396C29.4888 13.8242 29.2937 12.8348 29.2937 11.7714C29.2937 10.7079 29.4888 9.71855 29.8792 8.8032C30.2696 7.88784 30.8013 7.09363 31.4744 6.42058C32.1609 5.73406 32.9686 5.19561 33.8974 4.80524C34.8262 4.41487 35.829 4.21968 36.9059 4.21968C38.0905 4.21968 39.1136 4.4216 39.9751 4.82543C40.85 5.22927 41.6442 5.81483 42.3577 6.58211L40.1568 8.72243C39.7799 8.29167 39.3289 7.93495 38.8039 7.65227C38.279 7.35612 37.653 7.20805 36.9261 7.20805C36.2934 7.20805 35.7012 7.31574 35.1493 7.53112C34.6108 7.7465 34.1397 8.0561 33.7358 8.45994C33.332 8.86377 33.0157 9.34837 32.7868 9.91374C32.558 10.4656 32.4436 11.0849 32.4436 11.7714C32.4436 12.4579 32.558 13.0838 32.7868 13.6492C33.0157 14.2011 33.332 14.679 33.7358 15.0828C34.1397 15.4866 34.6108 15.7963 35.1493 16.0116C35.7012 16.227 36.2934 16.3347 36.9261 16.3347C37.6934 16.3347 38.3597 16.1799 38.9251 15.8703C39.4905 15.5607 40.002 15.1165 40.4597 14.5376L42.7009 16.6578ZM48.9356 8.783C49.7029 8.783 50.4096 8.91762 51.0557 9.18684C51.7153 9.4426 52.2807 9.80605 52.7518 10.2772C53.2364 10.7349 53.6066 11.2868 53.8624 11.9329C54.1316 12.579 54.2662 13.2858 54.2662 14.053C54.2662 14.8203 54.1316 15.527 53.8624 16.1732C53.6066 16.8193 53.2364 17.3779 52.7518 17.8491C52.2807 18.3068 51.7153 18.6702 51.0557 18.9394C50.4096 19.1952 49.7029 19.3231 48.9356 19.3231C48.1683 19.3231 47.4549 19.1952 46.7953 18.9394C46.1491 18.6702 45.5838 18.3068 45.0992 17.8491C44.628 17.3779 44.2579 16.8193 43.9886 16.1732C43.7329 15.527 43.605 14.8203 43.605 14.053C43.605 13.2858 43.7329 12.579 43.9886 11.9329C44.2579 11.2868 44.628 10.7349 45.0992 10.2772C45.5838 9.80605 46.1491 9.4426 46.7953 9.18684C47.4549 8.91762 48.1683 8.783 48.9356 8.783ZM48.9356 16.4962C49.2452 16.4962 49.5346 16.4424 49.8038 16.3347C50.0865 16.2135 50.3356 16.052 50.5509 15.8501C50.7663 15.6347 50.9346 15.379 51.0557 15.0828C51.1769 14.7732 51.2375 14.4299 51.2375 14.053C51.2375 13.6761 51.1769 13.3396 51.0557 13.0435C50.9346 12.7473 50.7663 12.4915 50.5509 12.2762C50.3356 12.0608 50.0865 11.8993 49.8038 11.7916C49.5346 11.6704 49.2452 11.6098 48.9356 11.6098C48.626 11.6098 48.3299 11.6704 48.0472 11.7916C47.7779 11.8993 47.5356 12.0608 47.3203 12.2762C47.1049 12.4915 46.9366 12.7473 46.8155 13.0435C46.6943 13.3396 46.6337 13.6761 46.6337 14.053C46.6337 14.4299 46.6943 14.7732 46.8155 15.0828C46.9366 15.379 47.1049 15.6347 47.3203 15.8501C47.5356 16.052 47.7779 16.2135 48.0472 16.3347C48.3299 16.4424 48.626 16.4962 48.9356 16.4962ZM58.5916 10.358H58.7936C59.4666 9.30799 60.4762 8.783 61.8223 8.783C63.0607 8.783 63.9828 9.18011 64.5886 9.97431C65.1943 10.7685 65.4972 11.8118 65.4972 13.104V19H62.4685V13.4473C62.4685 12.9088 62.3406 12.4714 62.0848 12.1348C61.829 11.7848 61.4319 11.6098 60.8935 11.6098C60.207 11.6098 59.682 11.8723 59.3185 12.3973C58.9686 12.9223 58.7936 13.6088 58.7936 14.4569V19H55.7648V9.10607H58.5916V10.358ZM68.2524 11.6502H66.5159V9.10607H68.2524V6.07732H71.2812V9.10607H73.7244V11.6502H71.2812V14.9819C71.2812 15.1972 71.3081 15.3991 71.3619 15.5876C71.4158 15.7626 71.51 15.9107 71.6446 16.0318C71.8465 16.2068 72.109 16.2943 72.4321 16.2943C72.6475 16.2943 72.8292 16.2674 72.9773 16.2135C73.1254 16.1597 73.2532 16.0924 73.3609 16.0116L74.209 18.6365C73.859 18.7981 73.4821 18.926 73.0782 19.0202C72.6744 19.1144 72.2436 19.1615 71.786 19.1615C70.7225 19.1615 69.8812 18.8519 69.262 18.2327C68.9389 17.9096 68.6899 17.5125 68.5149 17.0414C68.3399 16.5568 68.2524 16.0251 68.2524 15.4463V11.6502ZM81.4788 18.1116H81.2769C80.9538 18.4616 80.5836 18.751 80.1663 18.9798C79.7625 19.2086 79.2375 19.3231 78.5914 19.3231C78.0933 19.3231 77.6222 19.2423 77.1779 19.0808C76.7472 18.9192 76.3635 18.6904 76.027 18.3942C75.7039 18.0981 75.4482 17.7414 75.2597 17.3241C75.0713 16.9068 74.977 16.4424 74.977 15.9309C74.977 15.4328 75.078 14.9819 75.2799 14.578C75.4818 14.1607 75.7578 13.804 76.1078 13.5079C76.4578 13.2117 76.8683 12.9829 77.3395 12.8213C77.8241 12.6598 78.3491 12.579 78.9144 12.579C79.5202 12.579 80.0182 12.6194 80.4086 12.7002C80.8124 12.781 81.1692 12.8752 81.4788 12.9829V12.7204C81.4788 12.2896 81.297 11.9262 80.9336 11.63C80.5836 11.3204 80.1057 11.1656 79.5 11.1656C78.625 11.1656 77.8712 11.5223 77.2385 12.2358L75.179 10.782C75.7443 10.1089 76.3972 9.61086 77.1376 9.2878C77.8914 8.95127 78.7192 8.783 79.6211 8.783C81.2365 8.783 82.4547 9.14645 83.2758 9.87336C84.097 10.5868 84.5075 11.6771 84.5075 13.1444V19H81.4788V18.1116ZM81.4788 15.103C81.1692 14.9819 80.8596 14.8876 80.55 14.8203C80.2538 14.753 79.9442 14.7194 79.6211 14.7194C79.0827 14.7194 78.6789 14.8338 78.4096 15.0626C78.1404 15.278 78.0058 15.5607 78.0058 15.9107C78.0058 16.2607 78.1337 16.5433 78.3894 16.7587C78.6452 16.9606 78.9817 17.0616 79.399 17.0616C79.7356 17.0616 80.0317 17.0078 80.2875 16.9001C80.5567 16.7789 80.7788 16.6241 80.9538 16.4357C81.1288 16.2472 81.2567 16.0386 81.3374 15.8097C81.4317 15.5674 81.4788 15.3318 81.4788 15.103ZM96.1171 16.476C95.6325 17.3645 94.9864 18.0645 94.1787 18.576C93.3845 19.074 92.4153 19.3231 91.2711 19.3231C90.5038 19.3231 89.7904 19.1952 89.1308 18.9394C88.4847 18.6702 87.9193 18.3068 87.4347 17.8491C86.9636 17.3779 86.5934 16.8193 86.3241 16.1732C86.0684 15.527 85.9405 14.8203 85.9405 14.053C85.9405 13.2858 86.0684 12.579 86.3241 11.9329C86.5934 11.2868 86.9636 10.7349 87.4347 10.2772C87.9193 9.80605 88.4847 9.4426 89.1308 9.18684C89.7904 8.91762 90.5038 8.783 91.2711 8.783C92.4018 8.783 93.371 9.03203 94.1787 9.5301C94.9998 10.0282 95.6056 10.7147 95.996 11.5896L93.2095 12.7608C92.9941 12.3704 92.7316 12.081 92.422 11.8925C92.1259 11.7041 91.7423 11.6098 91.2711 11.6098C90.6115 11.6098 90.0596 11.8319 89.6154 12.2762C89.1846 12.7069 88.9693 13.2992 88.9693 14.053C88.9693 14.8069 89.1846 15.4059 89.6154 15.8501C90.0596 16.2809 90.6115 16.4962 91.2711 16.4962C91.7423 16.4962 92.1461 16.3953 92.4826 16.1934C92.8191 15.978 93.1018 15.6684 93.3307 15.2645L96.1171 16.476ZM98.7174 11.6502H96.9809V9.10607H98.7174V6.07732H101.746V9.10607H104.189V11.6502H101.746V14.9819C101.746 15.1972 101.773 15.3991 101.827 15.5876C101.881 15.7626 101.975 15.9107 102.11 16.0318C102.312 16.2068 102.574 16.2943 102.897 16.2943C103.112 16.2943 103.294 16.2674 103.442 16.2135C103.59 16.1597 103.718 16.0924 103.826 16.0116L104.674 18.6365C104.324 18.7981 103.947 18.926 103.543 19.0202C103.139 19.1144 102.709 19.1615 102.251 19.1615C101.188 19.1615 100.346 18.8519 99.727 18.2327C99.4039 17.9096 99.1549 17.5125 98.9799 17.0414C98.8049 16.5568 98.7174 16.0251 98.7174 15.4463V11.6502ZM110.964 4.54275H114.074L118.193 11.6098H118.395L122.514 4.54275H125.623V19H122.514V12.5992L122.716 10.1762H122.514L119.223 15.9309H117.365L114.074 10.1762H113.872L114.074 12.5992V19H110.964V4.54275ZM137.781 16.5972C137.297 17.4452 136.657 18.1116 135.863 18.5962C135.082 19.0808 134.133 19.3231 133.016 19.3231C132.249 19.3231 131.535 19.1952 130.876 18.9394C130.23 18.6702 129.664 18.3 129.18 17.8289C128.695 17.3577 128.318 16.8058 128.049 16.1732C127.78 15.527 127.645 14.8203 127.645 14.053C127.645 13.3396 127.78 12.6665 128.049 12.0339C128.318 11.3877 128.688 10.8291 129.159 10.358C129.644 9.87336 130.203 9.48971 130.835 9.20703C131.481 8.92435 132.181 8.783 132.935 8.783C133.756 8.783 134.477 8.91762 135.096 9.18684C135.728 9.45606 136.253 9.82624 136.671 10.2974C137.088 10.7551 137.404 11.3002 137.62 11.9329C137.835 12.5521 137.943 13.2184 137.943 13.9319C137.943 14.0396 137.936 14.1473 137.923 14.255C137.923 14.3626 137.916 14.4569 137.902 14.5376C137.889 14.6319 137.882 14.7194 137.882 14.8001H130.593C130.741 15.4463 131.044 15.9174 131.502 16.2135C131.959 16.5097 132.471 16.6578 133.036 16.6578C133.602 16.6578 134.066 16.5366 134.429 16.2943C134.806 16.052 135.102 15.7424 135.318 15.3655L137.781 16.5972ZM135.096 12.7406C135.069 12.579 135.002 12.404 134.894 12.2156C134.8 12.0271 134.658 11.8589 134.47 11.7108C134.295 11.5493 134.073 11.4214 133.803 11.3272C133.548 11.2195 133.258 11.1656 132.935 11.1656C132.464 11.1656 132.027 11.3002 131.623 11.5695C131.219 11.8387 130.923 12.2291 130.734 12.7406H135.096Z"
        fill="#3944BC" />
    <defs>
        <clipPath id="clip0_120_80">
            <rect width="24.4286" height="23" fill="white" transform="translate(0.931702)" />
        </clipPath>
    </defs>
</svg>