<svg width="89" height="24" viewBox="0 0 89 24" fill="none" xmlns="http://www.w3.org/2000/svg">
    <g clip-path="url(#clip0_103_255)">
        <path fill-rule="evenodd" clip-rule="evenodd"
            d="M11.9642 0C5.34833 0 0 5.38776 0 12.0531C0 17.3811 3.42686 21.8912 8.18082 23.4874C8.77518 23.6074 8.9929 23.2281 8.9929 22.909C8.9929 22.6296 8.97331 21.6718 8.97331 20.6738C5.64514 21.3923 4.95208 19.237 4.95208 19.237C4.41722 17.8401 3.62473 17.4811 3.62473 17.4811C2.53543 16.7427 3.70408 16.7427 3.70408 16.7427C4.91241 16.8225 5.54645 17.9799 5.54645 17.9799C6.61592 19.8157 8.33927 19.297 9.03257 18.9776C9.13151 18.1993 9.44865 17.6606 9.78539 17.3613C7.13094 17.0819 4.33812 16.0442 4.33812 11.4144C4.33812 10.0974 4.81322 9.01984 5.56604 8.1818C5.44727 7.88253 5.03118 6.64506 5.68506 4.98882C5.68506 4.98882 6.69527 4.66947 8.97306 6.22604C9.94827 5.9622 10.954 5.82799 11.9642 5.82686C12.9744 5.82686 14.0042 5.96669 14.9552 6.22604C17.2332 4.66947 18.2434 4.98882 18.2434 4.98882C18.8973 6.64506 18.481 7.88253 18.3622 8.1818C19.1349 9.01984 19.5904 10.0974 19.5904 11.4144C19.5904 16.0442 16.7976 17.0618 14.1233 17.3613C14.5592 17.7404 14.9353 18.4587 14.9353 19.5962C14.9353 21.2126 14.9158 22.5098 14.9158 22.9087C14.9158 23.2281 15.1337 23.6074 15.7278 23.4877C20.4818 21.8909 23.9087 17.3811 23.9087 12.0531C23.9282 5.38776 18.5603 0 11.9642 0Z"
            fill="white" />
    </g>
    <g clip-path="url(#clip1_103_255)">
        <path
            d="M40.5563 10.945H35.5143C35.4518 10.945 35.3919 10.9698 35.3477 11.014C35.3036 11.0582 35.2787 11.1181 35.2787 11.1806V13.6457C35.2787 13.7082 35.3035 13.7682 35.3477 13.8124C35.3919 13.8567 35.4518 13.8816 35.5143 13.8817H37.4812V16.9443C37.4812 16.9443 37.0395 17.095 35.8185 17.095C34.378 17.095 32.3657 16.5685 32.3657 12.1435C32.3657 7.71761 34.4611 7.13516 36.4283 7.13516C38.1312 7.13516 38.8649 7.43513 39.3316 7.57943C39.4783 7.62441 39.614 7.47848 39.614 7.34817L40.1764 4.96651C40.1764 4.90567 40.1558 4.8322 40.0864 4.78235C39.8968 4.64717 38.7403 4 35.8185 4C32.4526 4 29 5.43215 29 12.316C29 19.2004 32.953 20.2261 36.284 20.2261C39.0421 20.2261 40.7153 19.0475 40.7153 19.0475C40.7843 19.0092 40.7918 18.9129 40.7918 18.8687V11.1805C40.7918 11.0505 40.6863 10.945 40.5563 10.945ZM66.5404 4.82483C66.5407 4.79389 66.5348 4.7632 66.5232 4.73453C66.5116 4.70586 66.4944 4.67977 66.4726 4.65776C66.4509 4.63575 66.425 4.61825 66.3965 4.60627C66.368 4.59429 66.3373 4.58807 66.3064 4.58795H63.4674C63.4364 4.58807 63.4057 4.59429 63.3771 4.60625C63.3485 4.61822 63.3226 4.6357 63.3007 4.65769C63.2789 4.67969 63.2616 4.70577 63.2499 4.73445C63.2381 4.76313 63.2321 4.79384 63.2322 4.82483L63.233 10.3112H58.8078V4.82483C58.8081 4.79388 58.8022 4.76319 58.7905 4.73451C58.7789 4.70584 58.7617 4.67975 58.7399 4.65775C58.7181 4.63574 58.6922 4.61824 58.6637 4.60627C58.6352 4.59429 58.6045 4.58807 58.5736 4.58795H55.7348C55.6723 4.58828 55.6125 4.61342 55.5685 4.65784C55.5245 4.70226 55.5 4.76233 55.5003 4.82483V19.6803C55.5003 19.8112 55.6056 19.9178 55.7348 19.9178H58.5736C58.7034 19.9178 58.8078 19.8111 58.8078 19.6803V13.326H63.233L63.2252 19.6803C63.2252 19.8112 63.3307 19.9178 63.4605 19.9178H66.3062C66.4362 19.9178 66.5402 19.8111 66.5404 19.6803V4.82483ZM45.9134 6.77434C45.9134 5.75199 45.0938 4.92591 44.0827 4.92591C43.0726 4.92591 42.2524 5.75199 42.2524 6.77434C42.2524 7.79545 43.0726 8.62365 44.0827 8.62365C45.0938 8.62365 45.9134 7.79545 45.9134 6.77434ZM45.7104 16.5466V9.68936C45.7105 9.62684 45.6859 9.56681 45.6419 9.52242C45.5978 9.47804 45.538 9.45293 45.4755 9.4526H42.6456C42.5158 9.4526 42.3996 9.58654 42.3996 9.71684V19.5411C42.3996 19.83 42.5795 19.9157 42.8124 19.9157H45.3621C45.6418 19.9157 45.7104 19.7782 45.7104 19.5366V16.5466ZM77.3294 9.47497H74.5122C74.3831 9.47497 74.2779 9.58141 74.2779 9.71247V16.9965C74.2779 16.9965 73.5621 17.5203 72.5464 17.5203C71.5306 17.5203 71.2611 17.0594 71.2611 16.0647V9.71247C71.2611 9.58141 71.1561 9.47497 71.0269 9.47497H68.1676C68.0387 9.47497 67.9328 9.58141 67.9328 9.71247V16.5456C67.9328 19.4999 69.5794 20.2226 71.8446 20.2226C73.7028 20.2226 75.2009 19.1961 75.2009 19.1961C75.2009 19.1961 75.2722 19.737 75.3045 19.8012C75.3368 19.8652 75.4209 19.9298 75.5117 19.9298L77.3308 19.9218C77.4597 19.9218 77.5656 19.8151 77.5656 19.6847L77.5646 9.7126C77.5646 9.58141 77.4592 9.47497 77.3294 9.47497ZM83.918 17.5113C82.9408 17.4815 82.278 17.038 82.278 17.038V12.3338C82.278 12.3338 82.9318 11.933 83.734 11.8613C84.7485 11.7704 85.726 12.0769 85.726 14.4968C85.7262 17.0487 85.285 17.5524 83.918 17.5113ZM85.0291 9.14139C83.4291 9.14139 82.3408 9.85527 82.3408 9.85527V4.82496C82.3408 4.69377 82.2359 4.58795 82.1065 4.58795H79.2596C79.2286 4.5881 79.198 4.59435 79.1694 4.60634C79.1409 4.61833 79.1149 4.63583 79.0932 4.65784C79.0714 4.67985 79.0541 4.70594 79.0424 4.73461C79.0307 4.76329 79.0248 4.79398 79.0249 4.82496V19.6803C79.0249 19.8112 79.1301 19.9178 79.2599 19.9178H81.2353C81.3241 19.9178 81.3915 19.8719 81.4412 19.7917C81.4903 19.7119 81.5612 19.1068 81.5612 19.1068C81.5612 19.1068 82.7253 20.21 84.9291 20.21C87.5163 20.21 89 18.8977 89 14.3188C89 9.73971 86.6303 9.14139 85.0291 9.14139ZM53.8696 9.45135H51.7401L51.7368 6.63791C51.7368 6.53146 51.682 6.47824 51.5589 6.47824H48.6569C48.5441 6.47824 48.4835 6.52796 48.4835 6.63628V9.54368C48.4835 9.54368 47.0292 9.89463 46.9309 9.92311C46.8818 9.93733 46.8387 9.96709 46.8081 10.0079C46.7774 10.0487 46.7608 10.0984 46.7608 10.1495V11.9764C46.7608 12.1079 46.8658 12.2136 46.9956 12.2136H48.4835V16.6086C48.4835 19.8732 50.7733 20.1939 52.3185 20.1939C53.0245 20.1939 53.8691 19.9673 54.0085 19.9155C54.0929 19.8845 54.1418 19.7972 54.1418 19.7025L54.1442 17.6928C54.1442 17.5616 54.0335 17.4558 53.9088 17.4558C53.7848 17.4558 53.4673 17.5063 53.1405 17.5063C52.0945 17.5063 51.7401 17.0199 51.7401 16.3903L51.7399 12.2134H53.8696C53.9994 12.2134 54.1045 12.1076 54.1045 11.9763V9.68786C54.1046 9.6569 54.0987 9.62621 54.0869 9.59755C54.0752 9.5689 54.0579 9.54284 54.0361 9.52087C54.0143 9.4989 53.9884 9.48145 53.9598 9.46952C53.9312 9.45759 53.9006 9.45142 53.8696 9.45135Z"
            fill="white" />
    </g>
    <defs>
        <clipPath id="clip0_103_255">
            <rect width="24" height="24" fill="white" />
        </clipPath>
        <clipPath id="clip1_103_255">
            <rect width="60" height="16" fill="white" transform="translate(29 4)" />
        </clipPath>
    </defs>
</svg>